<mxfile host="app.diagrams.net" modified="2024-05-02T21:10:05.459Z" agent="Mozilla/5.0 (Windows NT 10.0; Win64; x64) AppleWebKit/537.36 (KHTML, like Gecko) Chrome/124.0.0.0 Safari/537.36 Edg/124.0.0.0" etag="j7Rv8QFC1oSsM50mO5b4" version="24.3.1" type="google">
  <diagram name="PÃ¡gina-1" id="dI9OFV-8iByZNF-JHv8-">
    <mxGraphModel grid="1" page="1" gridSize="10" guides="1" tooltips="1" connect="1" arrows="1" fold="1" pageScale="1" pageWidth="827" pageHeight="1169" math="0" shadow="0">
      <root>
        <mxCell id="0" />
        <mxCell id="1" parent="0" />
        <mxCell id="EwR3lPT-oeZUVtRyrS4Y-3" value="" style="edgeStyle=orthogonalEdgeStyle;rounded=0;orthogonalLoop=1;jettySize=auto;html=1;" edge="1" parent="1" source="EwR3lPT-oeZUVtRyrS4Y-1">
          <mxGeometry relative="1" as="geometry">
            <mxPoint x="360" y="120" as="targetPoint" />
          </mxGeometry>
        </mxCell>
        <mxCell id="EwR3lPT-oeZUVtRyrS4Y-5" value="" style="edgeStyle=orthogonalEdgeStyle;rounded=0;orthogonalLoop=1;jettySize=auto;html=1;" edge="1" parent="1" source="EwR3lPT-oeZUVtRyrS4Y-1" target="EwR3lPT-oeZUVtRyrS4Y-4">
          <mxGeometry relative="1" as="geometry" />
        </mxCell>
        <mxCell id="EwR3lPT-oeZUVtRyrS4Y-1" value="FIN" style="ellipse;whiteSpace=wrap;html=1;" vertex="1" parent="1">
          <mxGeometry x="320" y="20" width="80" height="80" as="geometry" />
        </mxCell>
        <mxCell id="EwR3lPT-oeZUVtRyrS4Y-7" value="" style="edgeStyle=orthogonalEdgeStyle;rounded=0;orthogonalLoop=1;jettySize=auto;html=1;" edge="1" parent="1" source="EwR3lPT-oeZUVtRyrS4Y-4" target="EwR3lPT-oeZUVtRyrS4Y-6">
          <mxGeometry relative="1" as="geometry" />
        </mxCell>
        <mxCell id="EwR3lPT-oeZUVtRyrS4Y-4" value="Declarando&amp;nbsp;&lt;div&gt;result&lt;/div&gt;" style="whiteSpace=wrap;html=1;" vertex="1" parent="1">
          <mxGeometry x="300" y="120" width="120" height="60" as="geometry" />
        </mxCell>
        <mxCell id="EwR3lPT-oeZUVtRyrS4Y-9" value="" style="edgeStyle=orthogonalEdgeStyle;rounded=0;orthogonalLoop=1;jettySize=auto;html=1;" edge="1" parent="1" source="EwR3lPT-oeZUVtRyrS4Y-6" target="EwR3lPT-oeZUVtRyrS4Y-8">
          <mxGeometry relative="1" as="geometry" />
        </mxCell>
        <mxCell id="EwR3lPT-oeZUVtRyrS4Y-6" value="INPUT&lt;div&gt;s1,s2,s3s4,s5&lt;/div&gt;" style="shape=parallelogram;perimeter=parallelogramPerimeter;whiteSpace=wrap;html=1;fixedSize=1;" vertex="1" parent="1">
          <mxGeometry x="300" y="210" width="120" height="60" as="geometry" />
        </mxCell>
        <mxCell id="EwR3lPT-oeZUVtRyrS4Y-11" value="" style="edgeStyle=orthogonalEdgeStyle;rounded=0;orthogonalLoop=1;jettySize=auto;html=1;" edge="1" parent="1" source="EwR3lPT-oeZUVtRyrS4Y-8">
          <mxGeometry relative="1" as="geometry">
            <mxPoint x="460" y="355" as="targetPoint" />
          </mxGeometry>
        </mxCell>
        <mxCell id="EwR3lPT-oeZUVtRyrS4Y-20" value="" style="edgeStyle=orthogonalEdgeStyle;rounded=0;orthogonalLoop=1;jettySize=auto;html=1;" edge="1" parent="1" source="EwR3lPT-oeZUVtRyrS4Y-8" target="EwR3lPT-oeZUVtRyrS4Y-19">
          <mxGeometry relative="1" as="geometry" />
        </mxCell>
        <mxCell id="EwR3lPT-oeZUVtRyrS4Y-8" value="s1[0]==s5[0]" style="rhombus;whiteSpace=wrap;html=1;" vertex="1" parent="1">
          <mxGeometry x="315" y="310" width="90" height="90" as="geometry" />
        </mxCell>
        <mxCell id="EwR3lPT-oeZUVtRyrS4Y-12" value="SI" style="text;html=1;align=center;verticalAlign=middle;resizable=0;points=[];autosize=1;strokeColor=none;fillColor=none;" vertex="1" parent="1">
          <mxGeometry x="415" y="318" width="30" height="30" as="geometry" />
        </mxCell>
        <mxCell id="EwR3lPT-oeZUVtRyrS4Y-15" value="NO" style="text;html=1;align=center;verticalAlign=middle;resizable=0;points=[];autosize=1;strokeColor=none;fillColor=none;" vertex="1" parent="1">
          <mxGeometry x="280" y="318" width="40" height="30" as="geometry" />
        </mxCell>
        <mxCell id="EwR3lPT-oeZUVtRyrS4Y-22" style="edgeStyle=orthogonalEdgeStyle;rounded=0;orthogonalLoop=1;jettySize=auto;html=1;exitX=0.5;exitY=1;exitDx=0;exitDy=0;" edge="1" parent="1" source="EwR3lPT-oeZUVtRyrS4Y-18">
          <mxGeometry relative="1" as="geometry">
            <mxPoint x="360" y="510" as="targetPoint" />
            <Array as="points">
              <mxPoint x="520" y="480" />
              <mxPoint x="361" y="480" />
            </Array>
          </mxGeometry>
        </mxCell>
        <mxCell id="EwR3lPT-oeZUVtRyrS4Y-18" value="result=&quot;Hemos encontrado algo!&quot;" style="whiteSpace=wrap;html=1;" vertex="1" parent="1">
          <mxGeometry x="460" y="325" width="120" height="60" as="geometry" />
        </mxCell>
        <mxCell id="EwR3lPT-oeZUVtRyrS4Y-21" style="edgeStyle=orthogonalEdgeStyle;rounded=0;orthogonalLoop=1;jettySize=auto;html=1;exitX=0.5;exitY=1;exitDx=0;exitDy=0;" edge="1" parent="1" source="EwR3lPT-oeZUVtRyrS4Y-19">
          <mxGeometry relative="1" as="geometry">
            <mxPoint x="360" y="510" as="targetPoint" />
            <Array as="points">
              <mxPoint x="190" y="480" />
              <mxPoint x="361" y="480" />
            </Array>
          </mxGeometry>
        </mxCell>
        <mxCell id="EwR3lPT-oeZUVtRyrS4Y-19" value="result= &quot;Aun sin suerte&quot;" style="whiteSpace=wrap;html=1;" vertex="1" parent="1">
          <mxGeometry x="130" y="325" width="120" height="60" as="geometry" />
        </mxCell>
        <mxCell id="EwR3lPT-oeZUVtRyrS4Y-23" value="OUTPUT&lt;div&gt;s1[0]+s2[0]+s3[0]+s4[0]+s5[0]&lt;span style=&quot;background-color: initial;&quot;&gt;,&lt;/span&gt;&lt;/div&gt;&lt;div&gt;&lt;span style=&quot;background-color: initial;&quot;&gt;result&lt;/span&gt;&lt;/div&gt;" style="shape=parallelogram;perimeter=parallelogramPerimeter;whiteSpace=wrap;html=1;fixedSize=1;" vertex="1" parent="1">
          <mxGeometry x="257.5" y="510" width="205" height="60" as="geometry" />
        </mxCell>
      </root>
    </mxGraphModel>
  </diagram>
</mxfile>
